<svg xmlns="http://www.w3.org/2000/svg" viewBox="0 0 600 400" width="100%" height="100%">
  <defs>
    <linearGradient id="bg-gallery_3.svg" x1="0%" y1="0%" x2="100%" y2="100%">
      <stop offset="0%" stop-color="#1f1a10" />
      <stop offset="100%" stop-color="#0a0805" />
    </linearGradient>
    <linearGradient id="gold-grad" x1="0%" y1="0%" x2="100%" y2="100%">
      <stop offset="0%" stop-color="#FFF3A8" />
      <stop offset="100%" stop-color="#B8860B" />
    </linearGradient>
  </defs>
  <rect width="600" height="400" fill="url(#bg-gallery_3.svg)" />
  <rect x="15" y="15" width="570" height="370" fill="none" stroke="url(#gold-grad)" stroke-width="1.5" opacity="0.25" rx="5" />
  
  <!-- Modern camera grid/focus lines -->
  <path d="M 30 50 L 50 50 M 30 50 L 30 70" stroke="#FFD700" stroke-width="2" opacity="0.5" />
  <path d="M 570 50 L 550 50 M 570 50 L 570 70" stroke="#FFD700" stroke-width="2" opacity="0.5" />
  <path d="M 30 350 L 50 350 M 30 350 L 30 330" stroke="#FFD700" stroke-width="2" opacity="0.5" />
  <path d="M 570 350 L 550 350 M 570 350 L 570 330" stroke="#FFD700" stroke-width="2" opacity="0.5" />
  
  <!-- Central lens shape -->
  <circle cx="300" cy="180" r="65" fill="none" stroke="rgba(255, 215, 0, 0.15)" stroke-width="3" />
  <circle cx="300" cy="180" r="45" fill="none" stroke="rgba(255, 255, 255, 0.05)" stroke-width="1" />
  
  <text x="300" y="190" font-family="'Montserrat', sans-serif" font-weight="900" font-size="36" fill="url(#gold-grad)" text-anchor="middle" opacity="0.25">GRK</text>

  <!-- Title / details -->
  <rect x="0" y="300" width="600" height="100" fill="rgba(0,0,0,0.85)" />
  <text x="30" y="340" font-family="'Montserrat', sans-serif" font-weight="700" font-size="18" fill="#FFFFFF">Rangoon Audio Launch Event</text>
  <text x="30" y="365" font-family="'Poppins', sans-serif" font-weight="600" font-size="11" fill="#FFD700" letter-spacing="2">Events</text>
  <text x="570" y="355" font-family="'Poppins', sans-serif" font-weight="400" font-size="10" fill="#666666" text-anchor="end">TEAM GRK ARCHIVE</text>
</svg>
